<?xml version="1.0" encoding="UTF-8" standalone="no"?>
<?xml-stylesheet type="text/css" href="../css/diagram.css" ?>

<svg viewBox="0 0 1024 900" version="1.1" xmlns="http://www.w3.org/2000/svg" xmlns:xlink="http://www.w3.org/1999/xlink" xmlns:sketch="http://www.bohemiancoding.com/sketch/ns">
    <title>1024</title>
    <description>Created with Sketch (http://www.bohemiancoding.com/sketch)</description>
    <defs>
        <linearGradient x1="4.96836003%" y1="5.83687099%" x2="50%" y2="100%" id="linearGradient-1">
            <stop stop-color="#FFFFFF" stop-opacity="0.415584789" offset="0%"></stop>
            <stop stop-color="#FBE500" offset="100%"></stop>
        </linearGradient>
        <path d="M758.719212,570.313809 L998.288521,732.061276 L798.539382,831.08703 L749.983826,574.489213 L758.719212,570.313809 Z M758.719212,570.313809" id="path-2"></path>
    </defs>
    <g id="Page 1" stroke="none" stroke-width="1" fill="none" fill-rule="evenodd">
        <g id="1024">
            <g id="MasterOwl" transform="translate(61.000000, 63.000000)">
                <path d="M65.2876166,337 C40.2123183,312.454557 24,273.437649 24,229.5 C24,155.217697 70.3385256,95 127.5,95 C184.661474,95 231,155.217697 231,229.5 C231,273.437649 214.787682,312.454557 189.712383,337 Z M65.2876166,337" id="Body" fill="#D8D8D8"></path>
                <path d="M125.5,201 C181.00462,201 226,156.00462 226,100.5 C226,44.9953799 181.00462,0 125.5,0 C69.9953799,0 25,44.9953799 25,100.5 C25,156.00462 69.9953799,201 125.5,201 Z M125.5,201" id="Head" stroke="#FFFFFF" stroke-width="6" fill="#D8D8D8"></path>
                <g id="Left eye" transform="translate(74.000000, 53.000000)">
                    <path d="M17,34 C26.3888412,34 34,26.3888412 34,17 C34,7.61115879 26.3888412,0 17,0 C7.61115879,0 0,7.61115879 0,17 C0,26.3888412 7.61115879,34 17,34 Z M17,34" id="Oval 1" fill="#FBA617"></path>
                    <path d="M17.5,28 C23.2989902,28 28,23.2989902 28,17.5 C28,11.7010098 23.2989902,7 17.5,7 C11.7010098,7 7,11.7010098 7,17.5 C7,23.2989902 11.7010098,28 17.5,28 Z M17.5,28" id="Oval 1 copy" fill="#4A4A4A"></path>
                </g>
                <g id="Right eye" transform="translate(138.000000, 53.000000)">
                    <path d="M17,34 C26.3888412,34 34,26.3888412 34,17 C34,7.61115879 26.3888412,0 17,0 C7.61115879,0 0,7.61115879 0,17 C0,26.3888412 7.61115879,34 17,34 Z M17,34" id="Oval 1" fill="#FBA617"></path>
                    <path d="M17.5,28 C23.2989902,28 28,23.2989902 28,17.5 C28,11.7010098 23.2989902,7 17.5,7 C11.7010098,7 7,11.7010098 7,17.5 C7,23.2989902 11.7010098,28 17.5,28 Z M17.5,28" id="Oval 1 copy" fill="#4A4A4A"></path>
                </g>
                <g id="Receipt" transform="translate(91.000000, 130.000000)">
                    <g id="Paper">
                        <path d="M4,3 L4,99 L76,99 L76,3 L4,3 Z M4,3" id="Rectangle 2" fill="#9B9B9B"></path>
                        <path d="M0,0 L0,96 L72,96 L72,0 L0,0 Z M0,0" id="Rectangle 2" fill="#FFFFFF"></path>
                    </g>
                    <path d="M10,52 L10,59 L64,59 L64,52 L10,52 Z M10,63 L10,70 L64,70 L64,63 L10,63 Z M10,75 L41,75 L41,82 L10,82 Z M9,21 L30,21 L30,42 L9,42 Z M9,21" id="Content" fill="#D8D8D8"></path>
                </g>
                <path d="M82,114 L126.560976,158 L169,115.06093" id="Beak" stroke="#979797" stroke-width="8" fill="#D8D8D8"></path>
            </g>
            <g id="HomeOwl" transform="translate(706.000000, 89.000000)">
                <path d="M36.1275349,186.728232 C22.2518757,173.127855 13.2806324,151.508987 13.2806324,127.163588 C13.2806324,86.0045289 38.9225043,52.6385224 70.5533597,52.6385224 C102.184215,52.6385224 127.826087,86.0045289 127.826087,127.163588 C127.826087,151.508987 118.854844,173.127855 104.979185,186.728232 Z M36.1275349,186.728232" id="Body" fill="#D8D8D8"></path>
                <path d="M69.4466403,111.372032 C100.160659,111.372032 125.059289,86.4405547 125.059289,55.6860158 C125.059289,24.931477 100.160659,0 69.4466403,0 C38.7326213,0 13.8339921,24.931477 13.8339921,55.6860158 C13.8339921,86.4405547 38.7326213,111.372032 69.4466403,111.372032 Z M69.4466403,111.372032" id="Head" stroke="#FFFFFF" stroke-width="6" fill="#D8D8D8"></path>
                <g id="Left eye" transform="translate(40.948617, 29.366755)">
                    <path d="M9.40711462,18.8390501 C14.6025208,18.8390501 18.8142292,14.6217854 18.8142292,9.41952507 C18.8142292,4.21726476 14.6025208,0 9.40711462,0 C4.21170842,0 0,4.21726476 0,9.41952507 C0,14.6217854 4.21170842,18.8390501 9.40711462,18.8390501 Z M9.40711462,18.8390501" id="Oval 1" fill="#FBA617"></path>
                    <path d="M9.68379447,15.5145119 C12.8927218,15.5145119 15.4940711,12.9097307 15.4940711,9.69656992 C15.4940711,6.48340915 12.8927218,3.87862797 9.68379447,3.87862797 C6.47486711,3.87862797 3.87351779,6.48340915 3.87351779,9.69656992 C3.87351779,12.9097307 6.47486711,15.5145119 9.68379447,15.5145119 Z M9.68379447,15.5145119" id="Oval 1 copy" fill="#4A4A4A"></path>
                </g>
                <g id="Right eye" transform="translate(76.363636, 29.366755)">
                    <path d="M9.40711462,18.8390501 C14.6025208,18.8390501 18.8142292,14.6217854 18.8142292,9.41952507 C18.8142292,4.21726476 14.6025208,0 9.40711462,0 C4.21170842,0 0,4.21726476 0,9.41952507 C0,14.6217854 4.21170842,18.8390501 9.40711462,18.8390501 Z M9.40711462,18.8390501" id="Oval 1" fill="#FBA617"></path>
                    <path d="M9.68379447,15.5145119 C12.8927218,15.5145119 15.4940711,12.9097307 15.4940711,9.69656992 C15.4940711,6.48340915 12.8927218,3.87862797 9.68379447,3.87862797 C6.47486711,3.87862797 3.87351779,6.48340915 3.87351779,9.69656992 C3.87351779,12.9097307 6.47486711,15.5145119 9.68379447,15.5145119 Z M9.68379447,15.5145119" id="Oval 1 copy" fill="#4A4A4A"></path>
                </g>
                <g id="Receipt" transform="translate(50.355731, 72.031662)">
                    <g id="Paper">
                        <path d="M2.21343874,1.66226913 L2.21343874,54.8548813 L42.055336,54.8548813 L42.055336,1.66226913 L2.21343874,1.66226913 Z M2.21343874,1.66226913" id="Rectangle 2" fill="#9B9B9B"></path>
                        <path d="M0,0 L0,53.1926121 L39.8418972,53.1926121 L39.8418972,0 L0,0 Z M0,0" id="Rectangle 2" fill="#FFFFFF"></path>
                    </g>
                    <path d="M5.53359684,28.8126649 L5.53359684,32.6912929 L35.4150198,32.6912929 L35.4150198,28.8126649 L5.53359684,28.8126649 Z M5.53359684,34.9076517 L5.53359684,38.7862797 L35.4150198,38.7862797 L35.4150198,34.9076517 L5.53359684,34.9076517 Z M5.53359684,41.5567282 L22.687747,41.5567282 L22.687747,45.4353562 L5.53359684,45.4353562 Z M4.98023715,11.6358839 L16.6007905,11.6358839 L16.6007905,23.2717678 L4.98023715,23.2717678 Z M4.98023715,11.6358839" id="Content" fill="#D8D8D8"></path>
                </g>
                <path d="M45.3754941,63.1662269 L70.0337414,87.5461741 L93.5177866,63.7540772" id="Beak" stroke="#979797" stroke-width="8" fill="#D8D8D8"></path>
            </g>
            <g id="HomeOwl" transform="translate(723.000000, 296.000000)">
                <path d="M36.1275349,186.728232 C22.2518757,173.127855 13.2806324,151.508987 13.2806324,127.163588 C13.2806324,86.0045289 38.9225043,52.6385224 70.5533597,52.6385224 C102.184215,52.6385224 127.826087,86.0045289 127.826087,127.163588 C127.826087,151.508987 118.854844,173.127855 104.979185,186.728232 Z M36.1275349,186.728232" id="Body" fill="#D8D8D8"></path>
                <path d="M69.4466403,111.372032 C100.160659,111.372032 125.059289,86.4405547 125.059289,55.6860158 C125.059289,24.931477 100.160659,0 69.4466403,0 C38.7326213,0 13.8339921,24.931477 13.8339921,55.6860158 C13.8339921,86.4405547 38.7326213,111.372032 69.4466403,111.372032 Z M69.4466403,111.372032" id="Head" stroke="#FFFFFF" stroke-width="6" fill="#D8D8D8"></path>
                <g id="Left eye" transform="translate(40.948617, 29.366755)">
                    <path d="M9.40711462,18.8390501 C14.6025208,18.8390501 18.8142292,14.6217854 18.8142292,9.41952507 C18.8142292,4.21726476 14.6025208,0 9.40711462,0 C4.21170842,0 0,4.21726476 0,9.41952507 C0,14.6217854 4.21170842,18.8390501 9.40711462,18.8390501 Z M9.40711462,18.8390501" id="Oval 1" fill="#FBA617"></path>
                    <path d="M9.68379447,15.5145119 C12.8927218,15.5145119 15.4940711,12.9097307 15.4940711,9.69656992 C15.4940711,6.48340915 12.8927218,3.87862797 9.68379447,3.87862797 C6.47486711,3.87862797 3.87351779,6.48340915 3.87351779,9.69656992 C3.87351779,12.9097307 6.47486711,15.5145119 9.68379447,15.5145119 Z M9.68379447,15.5145119" id="Oval 1 copy" fill="#4A4A4A"></path>
                </g>
                <g id="Right eye" transform="translate(76.363636, 29.366755)">
                    <path d="M9.40711462,18.8390501 C14.6025208,18.8390501 18.8142292,14.6217854 18.8142292,9.41952507 C18.8142292,4.21726476 14.6025208,0 9.40711462,0 C4.21170842,0 0,4.21726476 0,9.41952507 C0,14.6217854 4.21170842,18.8390501 9.40711462,18.8390501 Z M9.40711462,18.8390501" id="Oval 1" fill="#FBA617"></path>
                    <path d="M9.68379447,15.5145119 C12.8927218,15.5145119 15.4940711,12.9097307 15.4940711,9.69656992 C15.4940711,6.48340915 12.8927218,3.87862797 9.68379447,3.87862797 C6.47486711,3.87862797 3.87351779,6.48340915 3.87351779,9.69656992 C3.87351779,12.9097307 6.47486711,15.5145119 9.68379447,15.5145119 Z M9.68379447,15.5145119" id="Oval 1 copy" fill="#4A4A4A"></path>
                </g>
                <g id="Receipt" transform="translate(50.355731, 72.031662)">
                    <g id="Paper">
                        <path d="M2.21343874,1.66226913 L2.21343874,54.8548813 L42.055336,54.8548813 L42.055336,1.66226913 L2.21343874,1.66226913 Z M2.21343874,1.66226913" id="Rectangle 2" fill="#9B9B9B"></path>
                        <path d="M0,0 L0,53.1926121 L39.8418972,53.1926121 L39.8418972,0 L0,0 Z M0,0" id="Rectangle 2" fill="#FFFFFF"></path>
                    </g>
                    <path d="M5.53359684,28.8126649 L5.53359684,32.6912929 L35.4150198,32.6912929 L35.4150198,28.8126649 L5.53359684,28.8126649 Z M5.53359684,34.9076517 L5.53359684,38.7862797 L35.4150198,38.7862797 L35.4150198,34.9076517 L5.53359684,34.9076517 Z M5.53359684,41.5567282 L22.687747,41.5567282 L22.687747,45.4353562 L5.53359684,45.4353562 Z M4.98023715,11.6358839 L16.6007905,11.6358839 L16.6007905,23.2717678 L4.98023715,23.2717678 Z M4.98023715,11.6358839" id="Content" fill="#D8D8D8"></path>
                </g>
                <path d="M45.3754941,63.1662269 L70.0337414,87.5461741 L93.5177866,63.7540772" id="Beak" stroke="#979797" stroke-width="8" fill="#D8D8D8"></path>
            </g>
            <g id="HomeOwl" transform="translate(667.000000, 533.000000)">
                <path d="M36.1275349,186.728232 C22.2518757,173.127855 13.2806324,151.508987 13.2806324,127.163588 C13.2806324,86.0045289 38.9225043,52.6385224 70.5533597,52.6385224 C102.184215,52.6385224 127.826087,86.0045289 127.826087,127.163588 C127.826087,151.508987 118.854844,173.127855 104.979185,186.728232 Z M36.1275349,186.728232" id="Body" fill="#D8D8D8"></path>
                <path d="M69.4466403,111.372032 C100.160659,111.372032 125.059289,86.4405547 125.059289,55.6860158 C125.059289,24.931477 100.160659,0 69.4466403,0 C38.7326213,0 13.8339921,24.931477 13.8339921,55.6860158 C13.8339921,86.4405547 38.7326213,111.372032 69.4466403,111.372032 Z M69.4466403,111.372032" id="Head" stroke="#FFFFFF" stroke-width="6" fill="#D8D8D8"></path>
                <g id="Left eye" transform="translate(40.948617, 29.366755)">
                    <path d="M9.40711462,18.8390501 C14.6025208,18.8390501 18.8142292,14.6217854 18.8142292,9.41952507 C18.8142292,4.21726476 14.6025208,0 9.40711462,0 C4.21170842,0 0,4.21726476 0,9.41952507 C0,14.6217854 4.21170842,18.8390501 9.40711462,18.8390501 Z M9.40711462,18.8390501" id="Oval 1" fill="#FBA617"></path>
                    <path d="M9.68379447,15.5145119 C12.8927218,15.5145119 15.4940711,12.9097307 15.4940711,9.69656992 C15.4940711,6.48340915 12.8927218,3.87862797 9.68379447,3.87862797 C6.47486711,3.87862797 3.87351779,6.48340915 3.87351779,9.69656992 C3.87351779,12.9097307 6.47486711,15.5145119 9.68379447,15.5145119 Z M9.68379447,15.5145119" id="Oval 1 copy" fill="#4A4A4A"></path>
                </g>
                <g id="Right eye" transform="translate(76.363636, 29.366755)">
                    <path d="M9.40711462,18.8390501 C14.6025208,18.8390501 18.8142292,14.6217854 18.8142292,9.41952507 C18.8142292,4.21726476 14.6025208,0 9.40711462,0 C4.21170842,0 0,4.21726476 0,9.41952507 C0,14.6217854 4.21170842,18.8390501 9.40711462,18.8390501 Z M9.40711462,18.8390501" id="Oval 1" fill="#FBA617"></path>
                    <path d="M9.68379447,15.5145119 C12.8927218,15.5145119 15.4940711,12.9097307 15.4940711,9.69656992 C15.4940711,6.48340915 12.8927218,3.87862797 9.68379447,3.87862797 C6.47486711,3.87862797 3.87351779,6.48340915 3.87351779,9.69656992 C3.87351779,12.9097307 6.47486711,15.5145119 9.68379447,15.5145119 Z M9.68379447,15.5145119" id="Oval 1 copy" fill="#4A4A4A"></path>
                </g>
                <g id="Receipt" transform="translate(50.355731, 72.031662)">
                    <g id="Paper">
                        <path d="M2.21343874,1.66226913 L2.21343874,54.8548813 L42.055336,54.8548813 L42.055336,1.66226913 L2.21343874,1.66226913 Z M2.21343874,1.66226913" id="Rectangle 2" fill="#9B9B9B"></path>
                        <path d="M0,0 L0,53.1926121 L39.8418972,53.1926121 L39.8418972,0 L0,0 Z M0,0" id="Rectangle 2" fill="#FFFFFF"></path>
                    </g>
                    <path d="M5.53359684,28.8126649 L5.53359684,32.6912929 L35.4150198,32.6912929 L35.4150198,28.8126649 L5.53359684,28.8126649 Z M5.53359684,34.9076517 L5.53359684,38.7862797 L35.4150198,38.7862797 L35.4150198,34.9076517 L5.53359684,34.9076517 Z M5.53359684,41.5567282 L22.687747,41.5567282 L22.687747,45.4353562 L5.53359684,45.4353562 Z M4.98023715,11.6358839 L16.6007905,11.6358839 L16.6007905,23.2717678 L4.98023715,23.2717678 Z M4.98023715,11.6358839" id="Content" fill="#D8D8D8"></path>
                </g>
                <path d="M45.3754941,63.1662269 L70.0337414,87.5461741 L93.5177866,63.7540772" id="Beak" stroke="#979797" stroke-width="8" fill="#D8D8D8"></path>
            </g>
            <g id="HomeOwl" transform="translate(551.000000, 665.000000)">
                <path d="M36.1275349,186.728232 C22.2518757,173.127855 13.2806324,151.508987 13.2806324,127.163588 C13.2806324,86.0045289 38.9225043,52.6385224 70.5533597,52.6385224 C102.184215,52.6385224 127.826087,86.0045289 127.826087,127.163588 C127.826087,151.508987 118.854844,173.127855 104.979185,186.728232 Z M36.1275349,186.728232" id="Body" fill="#D8D8D8"></path>
                <path d="M69.4466403,111.372032 C100.160659,111.372032 125.059289,86.4405547 125.059289,55.6860158 C125.059289,24.931477 100.160659,0 69.4466403,0 C38.7326213,0 13.8339921,24.931477 13.8339921,55.6860158 C13.8339921,86.4405547 38.7326213,111.372032 69.4466403,111.372032 Z M69.4466403,111.372032" id="Head" stroke="#FFFFFF" stroke-width="6" fill="#D8D8D8"></path>
                <g id="Left eye" transform="translate(40.948617, 29.366755)">
                    <path d="M9.40711462,18.8390501 C14.6025208,18.8390501 18.8142292,14.6217854 18.8142292,9.41952507 C18.8142292,4.21726476 14.6025208,0 9.40711462,0 C4.21170842,0 0,4.21726476 0,9.41952507 C0,14.6217854 4.21170842,18.8390501 9.40711462,18.8390501 Z M9.40711462,18.8390501" id="Oval 1" fill="#FBA617"></path>
                    <path d="M9.68379447,15.5145119 C12.8927218,15.5145119 15.4940711,12.9097307 15.4940711,9.69656992 C15.4940711,6.48340915 12.8927218,3.87862797 9.68379447,3.87862797 C6.47486711,3.87862797 3.87351779,6.48340915 3.87351779,9.69656992 C3.87351779,12.9097307 6.47486711,15.5145119 9.68379447,15.5145119 Z M9.68379447,15.5145119" id="Oval 1 copy" fill="#4A4A4A"></path>
                </g>
                <g id="Right eye" transform="translate(76.363636, 29.366755)">
                    <path d="M9.40711462,18.8390501 C14.6025208,18.8390501 18.8142292,14.6217854 18.8142292,9.41952507 C18.8142292,4.21726476 14.6025208,0 9.40711462,0 C4.21170842,0 0,4.21726476 0,9.41952507 C0,14.6217854 4.21170842,18.8390501 9.40711462,18.8390501 Z M9.40711462,18.8390501" id="Oval 1" fill="#FBA617"></path>
                    <path d="M9.68379447,15.5145119 C12.8927218,15.5145119 15.4940711,12.9097307 15.4940711,9.69656992 C15.4940711,6.48340915 12.8927218,3.87862797 9.68379447,3.87862797 C6.47486711,3.87862797 3.87351779,6.48340915 3.87351779,9.69656992 C3.87351779,12.9097307 6.47486711,15.5145119 9.68379447,15.5145119 Z M9.68379447,15.5145119" id="Oval 1 copy" fill="#4A4A4A"></path>
                </g>
                <g id="Receipt" transform="translate(50.355731, 72.031662)">
                    <g id="Paper">
                        <path d="M2.21343874,1.66226913 L2.21343874,54.8548813 L42.055336,54.8548813 L42.055336,1.66226913 L2.21343874,1.66226913 Z M2.21343874,1.66226913" id="Rectangle 2" fill="#9B9B9B"></path>
                        <path d="M0,0 L0,53.1926121 L39.8418972,53.1926121 L39.8418972,0 L0,0 Z M0,0" id="Rectangle 2" fill="#FFFFFF"></path>
                    </g>
                    <path d="M5.53359684,28.8126649 L5.53359684,32.6912929 L35.4150198,32.6912929 L35.4150198,28.8126649 L5.53359684,28.8126649 Z M5.53359684,34.9076517 L5.53359684,38.7862797 L35.4150198,38.7862797 L35.4150198,34.9076517 L5.53359684,34.9076517 Z M5.53359684,41.5567282 L22.687747,41.5567282 L22.687747,45.4353562 L5.53359684,45.4353562 Z M4.98023715,11.6358839 L16.6007905,11.6358839 L16.6007905,23.2717678 L4.98023715,23.2717678 Z M4.98023715,11.6358839" id="Content" fill="#D8D8D8"></path>
                </g>
                <path d="M45.3754941,63.1662269 L70.0337414,87.5461741 L93.5177866,63.7540772" id="Beak" stroke="#979797" stroke-width="8" fill="#D8D8D8"></path>
            </g>
            <g id="Group" transform="translate(526.500000, 365.000000) rotate(-356.000000) translate(-526.500000, -365.000000) translate(339.000000, 348.000000)">
                <path d="M0.5,17 L341.820953,17" id="Line" stroke="#3892E3" stroke-width="6" stroke-linecap="square" stroke-dasharray="10"></path>
                <path d="M353.5,-4 L370,38 L337,38 L353.5,-4 Z M353.5,-4" id="Triangle 1" fill="#3892E3" transform="translate(353.500000, 17.000000) rotate(-270.000000) translate(-353.500000, -17.000000) "></path>
            </g>
            <g id="ArrowForward" transform="translate(494.500000, 468.000000) rotate(-331.000000) translate(-494.500000, -468.000000) translate(307.000000, 451.000000)">
                <path d="M0.5,17 L341.820953,17" id="Line" stroke="#3892E3" stroke-width="6" stroke-linecap="square" stroke-dasharray="10"></path>
                <path d="M353.5,-4 L370,38 L337,38 L353.5,-4 Z M353.5,-4" id="Triangle 1" fill="#3892E3" transform="translate(353.500000, 17.000000) rotate(-270.000000) translate(-353.500000, -17.000000) "></path>
            </g>
            <g id="ArrowBack" transform="translate(494.500000, 468.000000) rotate(-151.000000) translate(-494.500000, -468.000000) translate(307.000000, 451.000000)">
                <path d="M0.5,17 L341.820953,17" id="Line" stroke="#3892E3" stroke-width="6" stroke-linecap="square" stroke-dasharray="10"></path>
                <path d="M353.5,-4 L370,38 L337,38 L353.5,-4 Z M353.5,-4" id="Triangle 1" fill="#3892E3" transform="translate(353.500000, 17.000000) rotate(-270.000000) translate(-353.500000, -17.000000) "></path>
            </g>
            <g id="Group copy" transform="translate(433.500000, 541.000000) rotate(-314.000000) translate(-433.500000, -541.000000) translate(246.000000, 524.000000)">
                <path d="M0.5,17 L341.820953,17" id="Line" stroke="#3892E3" stroke-width="6" stroke-linecap="square" stroke-dasharray="10"></path>
                <path d="M353.5,-4 L370,38 L337,38 L353.5,-4 Z M353.5,-4" id="Triangle 1" fill="#3892E3" transform="translate(353.500000, 17.000000) rotate(-270.000000) translate(-353.500000, -17.000000) "></path>
            </g>
            <g id="Group" transform="translate(526.500000, 282.000000) rotate(-11.000000) translate(-526.500000, -282.000000) translate(339.000000, 265.000000)">
                <path d="M0.5,17 L341.820953,17" id="Line" stroke="#3892E3" stroke-width="6" stroke-linecap="square" stroke-dasharray="10"></path>
                <path d="M353.5,-4 L370,38 L337,38 L353.5,-4 Z M353.5,-4" id="Triangle 1" fill="#3892E3" transform="translate(353.500000, 17.000000) rotate(-270.000000) translate(-353.500000, -17.000000) "></path>
            </g>
            <use id="Beam" xlink:href="#path-2"></use>
            <use id="Beam-1" fill="url(#linearGradient-1)" xlink:href="#path-2"></use>
        </g>
    </g>
</svg>